<svg
	xmlns="http://www.w3.org/2000/svg" viewBox="0 0 444.56 489.09">
	<defs>
		<style>
        .cls-1{
            fill:none;
            stroke:#000;
            stroke-miterlimit:10;
            stroke-width:3px;
        }
        .find {
            stroke: #ff0000;
        }
        </style>
	</defs>
	<title>Asset 3</title>
	<g id="Layer_2" data-name="Layer 2">
		<g id="Layer_1-2" data-name="Layer 1">
			<path class="cls-1 body" d="M197.15,180.25c50.17-.14,100.29,1.58,150.38,4.23,2.33.12,4.65.44,7,.59,11.5.72,11.48.72,14.1,11.66,8.78,36.6,16.55,73.41,20.37,110.91,4.49,43.94,3.81,87.51-10.54,129.94a213.31,213.31,0,0,1-16,35.45,8,8,0,0,1-6.41,4.56A798,798,0,0,1,200.66,487c-37.63-1.49-75.11-5-112.48-9.57a5.45,5.45,0,0,1-4.79-3.55,301.9,301.9,0,0,1-28-101c-6-60.64,3.81-119.51,19.51-177.74,3.42-12.71,3.54-12.54,16.82-13C126.84,180.89,162,180.13,197.15,180.25Z"/>
			<path class="cls-1 roof" d="M6.06,186.17c24.17-14.44,48.1-28.83,71.3-44.39,37-24.84,72.16-52,102.4-85a371.68,371.68,0,0,0,40.31-52.7c2.29-3.64,3.26-3.17,5.73-.28,34.5,40.47,70.34,79.66,110.75,114.42a720.64,720.64,0,0,0,101.59,72.84C294.23,178.16,150.23,177.37,6.06,186.17Z"/>
			<path class="cls-1 window-tr" d="M302.48,299.37c-19.31,0-34.59-.82-49.86-1.9-2.18-.15-3.24-.6-3.48-3-2.76-29-4-58.06-.21-87.13.46-3.53,1.57-4.59,5.07-5,29.75-3.44,59.46-2.37,89.19.11,2.85.23,3.9,1.18,4.16,4.17,2.52,29.1,2,58.17,0,87.27-.21,2.89-1.33,3.41-3.95,3.63C328.43,298.79,313.48,299.49,302.48,299.37Z"/>
			<path class="cls-1 window-tl" d="M196.42,255.43c-.52,10.75-1.29,25.37-1.92,40-.12,2.94-1.22,3.76-4.18,4-30.09,2.68-60.16,2.11-90.24,0-2.83-.2-3.59-1.14-3.84-3.77-2.75-28.55-3.57-57.09-.37-85.68.44-3.93,1.64-5.4,5.94-5.88,29.6-3.28,59.13-2.21,88.7.22,3.12.25,3.82,1.66,4,4.36C195.63,223,196.18,237.24,196.42,255.43Z"/>
			<path class="cls-1 window-br" d="M350.75,398c.23,14.83-.54,29.63-1.53,44.42-.2,3-1.18,3.9-4.08,4.15a511.43,511.43,0,0,1-70.35,1.07c-6.65-.34-13.29-.88-19.94-1.13-2.62-.1-3.75-.95-4-3.7-2.55-28.74-3.62-57.47-.2-86.23.41-3.49,1.67-4.87,5-5.23a415.65,415.65,0,0,1,82.26-.29c3.59.33,8.34-1,10.43,1.82,1.78,2.38.85,6.72,1.25,10.19C351,374.69,350.66,386.36,350.75,398Z"/>
			<path class="cls-1 door" d="M101.36,380.7a399.71,399.71,0,0,1,4-57.14c.41-2.86,1-3.56,4-2.64a141.78,141.78,0,0,0,85,0c2.9-.89,3.68-.32,4.15,2.6,6.29,38.76,9.56,77.63,4.94,116.83a247.49,247.49,0,0,1-4.74,27c-.49,2.12-.94,3.2-3.58,2.39-25.4-7.74-51-5.8-76.58-1.06-1.47.27-3,.47-4.43.69-8.24,1.21-8.1,1.2-8.72-7.32C103.48,435.83,101.29,409.61,101.36,380.7Z"/>
			<path class="cls-1 doorknob" d="M181.2,402.59a16.6,16.6,0,0,1-16.55-16.44c-.08-9,8-16.88,17-16.67a16.58,16.58,0,0,1,16.11,16.88A16.08,16.08,0,0,1,181.2,402.59Z"/>
			<path class="cls-1 w-tr-br" d="M302.41,269.68c.27-3.62.78-6.94.7-10.24-.12-4.41,1.44-5.95,6-5.69,7.78.42,15.61.21,23.42.06,2.74-.06,3.72.78,3.95,3.58.68,8.47,1,16.91,0,25.37-.25,2.09-.76,3.3-3.18,3.49-8.79.69-17.55,1.3-26.36.17-2.42-.31-3.49-1.08-3.58-3.62C303.24,278.32,302.74,273.86,302.41,269.68Z"/>
			<path class="cls-1 w-tr-tl" d="M277.43,244.94c-4.33,0-8.66-.06-13,0-2.36,0-3.64-.67-3.85-3.33a158.8,158.8,0,0,1,.14-26.44c.17-1.94.95-2.85,3-3.22a78.89,78.89,0,0,1,27.33.14c1.53.26,2.31.77,2.48,2.45a141.54,141.54,0,0,1,.55,26.44c-.27,3.1-1.49,4.37-4.66,4.21-4-.2-8-.05-12-.05Z"/>
			<path class="cls-1 w-tr-tr" d="M319.94,245c-4.31,0-8.63-.05-12.94,0-2.43,0-3.4-.89-3.69-3.45a120.81,120.81,0,0,1,.09-26.34c.22-2,1-2.82,3-3.13,9.3-1.43,18.55-.25,27.82.3,2.46.15,2.19,2,2.45,3.58,1.44,8.8-.17,17.55-.48,26.32-.08,2.31-1.44,2.7-3.27,2.7Z"/>
			<path class="cls-1 w-tr-bl" d="M260.9,270.06c0-4.32,0-8.64,0-13,0-2.31.67-3.66,3.41-3.62,8.64.11,17.28.08,25.92,0,2.6,0,3.37,1.07,3.63,3.48a122.35,122.35,0,0,1-.17,26.37c-.23,2.07-1,2.79-3.05,3a124.3,124.3,0,0,1-26.37.13c-2.31-.28-3.13-1.1-3.16-3.39-.06-4.31-.37-8.63-.57-12.94Z"/>
			<path class="cls-1 w-tl-tl" d="M124.22,246.8c-4,0-8-.14-12,0-3.12.15-4.43-1-4.61-4.18a197.48,197.48,0,0,1,.1-24.45c.2-3,1.53-4.26,4.47-4.68a86.71,86.71,0,0,1,24.87.22c2.57.37,3.5,1.37,3.76,4a153.74,153.74,0,0,1,.42,24.93c-.2,3-1.25,4.55-4.55,4.39-4.15-.2-8.32,0-12.48,0Z"/>
			<path class="cls-1 w-tl-bl" d="M107.66,270.47c.13-2.86.41-7.51.52-12.15,0-2.08.82-2.92,3-2.91,8.8.07,17.6.07,26.41,0,2.33,0,3.21.92,3.43,3.13a125.62,125.62,0,0,1-.19,26.86c-.2,1.8-.92,2.64-2.73,2.8a134,134,0,0,1-26.87.12c-2.07-.23-2.87-1-2.9-3.06C108.23,280.89,107.94,276.58,107.66,270.47Z"/>
			<path class="cls-1 w-tl-tr" d="M167,246.87c-4.31,0-8.63-.05-12.94,0-2.53.05-3.35-1.09-3.59-3.55a133.79,133.79,0,0,1,.07-25.86c.21-2.14.86-3.16,3.18-3.49,9.32-1.32,18.57-.28,27.84.36,1.48.1,1.91.9,2.13,2.2,1.6,9.47.09,18.89-.39,28.32-.11,2.23-2,2-3.35,2-4.31.09-8.63,0-12.95,0Z"/>
			<path class="cls-1 w-tl-br" d="M166.81,289.06c-3-.18-7.84-.58-12.66-.74-2.52-.09-3.38-1.18-3.62-3.63a130.85,130.85,0,0,1-.13-25.42c.25-2.62,1-3.77,3.88-3.7,8.49.19,17,.17,25.47,0,2.78,0,3.66.84,3.9,3.61a129.19,129.19,0,0,1,0,25.41c-.28,2.47-1.14,3.53-3.63,3.61C176.25,288.33,172.43,288.68,166.81,289.06Z"/>
			<path class="cls-1 w-br-br" d="M322,402.93h5c11.19,0,11.16,0,11.95,11a121.68,121.68,0,0,1-.46,17.91c-.16,2.1-.71,3.29-3.16,3.48-8.78.69-17.55,1.28-26.36.19-2.38-.29-3.34-1-3.61-3.57a129.86,129.86,0,0,1-.21-24.86c.32-3.58,1.67-4.38,4.91-4.17C314,403.12,318,402.93,322,402.93Z"/>
			<path class="cls-1 w-br-tr" d="M321.48,394.28c-1.84,0-3.67,0-5.5,0-11.1-.16-11.15-.16-11.4-11.48a139.48,139.48,0,0,1,.56-17c.32-3.2,1.18-4.5,4.61-4.89,8.53-1,17,0,25.44.46,2.27.12,3.11,1,3.38,3.29,1.08,8.85,0,17.64-.53,26.44-.13,2.09-1,2.95-3.07,2.92-4.5-.07-9,0-13.49,0Z"/>
			<path class="cls-1 w-br-tl" d="M278.73,394.22c-1.32,0-2.65,0-4,0-12.29-.32-12.43-.32-12.76-12.45-.15-5.63.48-11.27.55-16.91,0-2.79,1.43-3.66,3.9-4a83.87,83.87,0,0,1,26.27.28c1.72.28,2.6.81,2.75,2.73.68,8.77,1.45,17.52.43,26.34-.33,2.87-1.2,4.15-4.21,4-4.31-.17-8.63,0-12.95,0Z"/>
			<path class="cls-1 w-br-bl" d="M279.48,402.49c4.33,0,8.65,0,13,0,2,0,2.93.64,3.2,2.8a119.39,119.39,0,0,1-.1,27.38c-.2,1.9-1.05,2.42-2.83,2.6a122,122,0,0,1-26.88.13c-2.12-.25-2.73-1.1-2.86-3.11-.56-8.65-.47-17.29-.29-25.94.06-2.63,1-3.95,3.82-3.87,4.32.13,8.65,0,13,0Z"/>
		</g>
	</g>
</svg>